# Created by Kenney (www.kenney.nl)

mtllib Blaster GBE Mk2.mtl

v 8 -4 0.45
v 8 -3 0.45
v 9 -3.5 0.45
v 9 -3 0.45
v 9 -3 -0.45
v 9 -3.5 -0.45
v 8 -3 -0.45
v 8 -4 -0.45
v 7 -3 -0.45
v 7 -2 -0.45
v 8 -2.5 -0.45
v 7.5 -2 -0.45
v 8 -2.5 0.45
v 7.5 -2 0.45
v 7 -3 0.45
v 7 -2 0.45
v 7 -5 0.45
v 7 -4 0.45
v 8 -4.5 0.45
v 8 -4.5 -0.45
v 7 -4 -0.45
v 7 -5 -0.45
v 6 0 -0.9
v 6.5 0 -0.9
v 6 1 -0.9
v 7 0.5 -0.9
v 7 1 -0.9
v 6 0 0.9
v 6 1 0.9
v 6.5 0 0.9
v 7 1 0.9
v 7 0.5 0.9
v 6 -2 -0.45
v 6 -1 -0.45
v 7 -1.5 -0.45
v 6.5 -1 -0.45
v 7 -1.5 0.45
v 6.5 -1 0.45
v 6 -2 0.45
v 6 -1 0.45
v 6 -6 0.45
v 6 -5 0.45
v 7 -5.5 0.45
v 7 -5.5 -0.45
v 6 -5 -0.45
v 6 -6 -0.45
v 5 3 -1.35
v 5 2 -1.35
v 5 3 1.35
v 5 2 1.35
v 4 3 -1.35
v 4 3 1.35
v 4 2 1.35
v 4 2 -1.35
v -6 3 -1.35
v -6 2 -1.35
v -6 3 1.35
v -6 2 1.35
v -7 3 -1.35
v -7 3 1.35
v -7 2 1.35
v -7 2 -1.35
v 6 -1 -0.9
v 6 -1 0.9
v 5 1 -0.9
v 5 1 0.9
v 5 -1 0.9
v 5 -1 -0.9
v 6 2 -0.9
v 6.5 2 -0.9
v 6 3 -0.9
v 6 3 0.9
v 6.5 2 0.9
v 6 2 0.9
v 5 3 -0.9
v 5 4 -0.9
v 5 3 0.9
v 5 4 0.9
v 5.5 4 -0.9
v 5.5 4 0.9
v 1 0 -0.9
v 1 -1 -0.9
v 1 0 0.9
v 1 -1 0.9
v 0 0 -0.9
v 0 0 0.9
v 0 -1 0.9
v 0 -1 -0.9
v -1 0 -0.9
v -1 -1 -0.9
v -1 0 0.9
v -1 -1 0.9
v -2 0 -0.9
v -2 0 0.9
v -2 -1 0.9
v -2 -1 -0.9
v 6 -4 -0.45
v 6 -3 -0.45
v 5.5 -4 -0.45
v 5 -3 -0.45
v 6 -4 0.45
v 5.5 -4 0.45
v 6 -3 0.45
v 5 -3 0.45
v 5 -6 -0.45
v 5.5 -5 -0.45
v 5 -6 0.45
v 5.5 -5 0.45
v 5 -2 -0.45
v 4.5 -3 -0.45
v 4 -2 -0.45
v 4.5 -3 0.45
v 5 -2 0.45
v 4 -2 0.45
v 4 4 -1.35
v 4 5 -1.35
v 4 4 1.35
v 4 5 1.35
v 5 4 -1.35
v 4.5 5 -1.35
v 5 4 1.35
v 4.5 5 1.35
v 6 3 -1.35
v 6 2 -1.35
v 6 3 1.35
v 6 2 1.35
v -5 0 -0.45
v -5 -1 -0.45
v -5 0 0.45
v -5 -1 0.45
v -5.5 -1 0.45
v -5.5 -1 -0.45
v -5.5 0 -0.45
v -5.5 0 0.45
v -5 -2 -0.45
v -5 -2 0.45
v -5.5 -2 0.45
v -5.5 -2 -0.45
v 5 0 -0.9
v 5 0 0.9
v 4 0 -0.9
v 4 0 0.9
v 4 -1 0.9
v 4 -1 -0.9
v 2 0 -0.9
v 2 -1 -0.9
v 2 0 0.9
v 2 -1 0.9
v -3 0 -0.9
v -3 0 0.9
v -3 -1 0.9
v -3 -1 -0.9
v 4 -1 -0.45
v 4 -1 0.45
v 2 -1 -0.45
v 2 -1 0.45
v 2 -2 0.45
v 2 -2 -0.45
v -7 4 -0.45
v -7 3 -0.45
v -7 4 0.45
v -7 3 0.45
v -7.5 3 0.45
v -7.5 3 -0.45
v -7.5 4 -0.45
v -7.5 4 0.45
v -7.5 2 1.35
v -7.5 2 -1.35
v -7.5 3 -1.35
v -7.5 3 1.35
v -7 2 -0.45
v -7 1 -0.45
v -7 2 0.45
v -7 1 0.45
v -7.5 1 0.45
v -7.5 1 -0.45
v -7.5 2 -0.45
v -7.5 2 0.45
v 4 5 -1.8
v 4 3 -1.8
v 4 5 1.8
v 4 3 1.8
v -7 5 -1.8
v -7 5 1.8
v -7 3 1.8
v -7 3 -1.8
v 5 2 -1.8
v 5 0 -1.8
v 5 2 1.8
v 5 0 1.8
v -7 2 -1.8
v -7 2 1.8
v -7 0 1.8
v -7 0 -1.8
v 1 -1 -1.35
v 1 -2 -1.35
v 1 -1 1.35
v 1 -2 1.35
v -5 -1 -1.35
v -5 -1 1.35
v -5 -2 1.35
v -5 -2 -1.35
v 6 1 -1.35
v 6 1 1.35
v 5 1 1.35
v 5 1 -1.35
v -3 0 -1.35
v -3 -1 -1.35
v -3 0 1.35
v -3 -1 1.35
v -5 0 -1.35
v -5 0 1.35
v 6 -3 -0.9
v 6 -3 0.9
v 5 -3 0.9
v 5 -3 -0.9
v 5 -2 -0.9
v 5 -2 0.9
v 4 -2 0.9
v 4 -2 -0.9
v 2 -1 -1.35
v 2 -2 -1.35
v 2 -1 1.35
v 2 -2 1.35
v 7 -2 -0.9
v 7 -4 -0.9
v 7 -2 0.9
v 7 -4 0.9
v 6 -2 -0.9
v 6 -2 0.9
v 6 -4 0.9
v 6 -4 -0.9
v 8 -3 -0.9
v 8 -4 -0.9
v 8 -3 0.9
v 8 -4 0.9
v 7 -3 -0.9
v 7 -3 0.9

vn 0 0 1
vn 1 0 0
vn 0 1 0
vn 0.4472136 -0.8944272 0
vn 0 0 -1
vn -1 0 0
vn 0.7071068 0.7071068 0
vn 0 -1 0
vn 0.7071068 -0.7071068 0
vn 0.8944272 0.4472136 0
vn 0.8944272 0.4472136 0
vn -0.8944272 -0.4472136 0
vn -0.8944272 0.4472136 0

vt -19.68504 -19.68504
vt -19.68504 19.68504
vt 19.68504 -1.173326E-06
vt 19.68504 19.68504
vt 0 0
vt NaN 0
vt NaN 0
vt 2.932868E-07 19.68504
vt 19.68504 3.338967E-11
vt -19.68504 19.68504
vt -19.68504 -19.68504
vt 19.68504 -19.68504
vt NaN 0
vt 19.68504 19.68504
vt 19.68504 3.800135E-12
vt 1.67815E-12 -19.68504
vt NaN 0
vt NaN 0
vt 0 NaN
vt 0 NaN
vt 0 NaN
vt 0 NaN
vt 0 NaN
vt 0 NaN
vt 0 NaN
vt 0 NaN
vt 0 NaN
vt 0 NaN
vt 0 NaN
vt 0 NaN
vt 0 NaN
vt 0 NaN
vt 0 NaN
vt 0 NaN
vt 0 NaN
vt NaN 0
vt NaN 0
vt NaN 0
vt 4.835243E-12 -19.68504
vt -19.68504 19.68504
vt NaN 0
vt 7.00453E-11 19.68504
vt 19.68504 -19.68504
vt 0 NaN
vt 0 NaN
vt 0 NaN
vt 0 NaN
vt 0 NaN
vt 0 NaN
vt 0 NaN
vt 0 NaN
vt 0 NaN
vt 0 NaN
vt 0 NaN
vt 0 NaN
vt 0 NaN
vt 0 NaN
vt 0 NaN
vt 0 NaN
vt 0 NaN
vt 0 NaN
vt 0 NaN
vt 0 NaN
vt 0 NaN
vt 0 NaN
vt 19.68504 -19.68504
vt -4.570921E-11 -19.68504
vt 19.68504 19.68504
vt -19.68504 19.68504
vt NaN 0
vt NaN 0
vt NaN 0
vt -6.038903E-11 19.68504
vt 0 NaN
vt 0 NaN
vt 0 NaN
vt 0 NaN
vt 0 NaN
vt 0 NaN
vt 0 NaN
vt 0 NaN
vt 0 NaN
vt 0 NaN
vt 0 NaN
vt 0 NaN
vt NaN 0
vt 0 NaN
vt 0 NaN
vt 0 NaN
vt 0 NaN
vt -6.387779E-12 19.68504
vt 0 NaN
vt 0 NaN
vt 0 NaN
vt 0 NaN
vt 0 NaN
vt 0 NaN
vt 0 NaN
vt 0 NaN
vt 2.285105E-11 -19.68504
vt 0 NaN
vt 0 NaN
vt 0 NaN
vt 0 NaN
vt 0 NaN
vt 0 NaN
vt 0 NaN
vt 0 NaN
vt 0 NaN
vt 0 NaN
vt 0 NaN
vt 0 NaN
vt 0 NaN
vt 0 NaN
vt 0 NaN
vt 0 NaN
vt 0 NaN
vt 0 NaN
vt 0 NaN
vt 0 NaN
vt 0 NaN
vt 0 NaN
vt 0 NaN
vt 0 NaN
vt 0 NaN
vt 0 NaN
vt 0 NaN
vt 0 NaN
vt 0 NaN
vt 0 NaN
vt 0 NaN
vt 0 NaN
vt 0 NaN
vt 0 NaN
vt 0 NaN
vt 0 NaN
vt 0 NaN
vt 0 NaN
vt 0 NaN
vt 0 NaN
vt 0 NaN
vt 0 NaN
vt 0 NaN
vt 0 NaN
vt 0 NaN
vt 0 NaN
vt 0 NaN
vt 0 NaN
vt 0 NaN
vt 0 NaN
vt 0 NaN
vt 0 NaN
vt 0 NaN
vt 0 NaN
vt 0 NaN
vt 0 NaN
vt 0 NaN
vt 0 NaN
vt 0 NaN
vt 0 NaN
vt 0 NaN
vt 0 NaN
vt 0 NaN
vt 0 NaN
vt 0 NaN
vt 0 NaN
vt 0 NaN
vt 0 NaN
vt 0 NaN
vt 0 NaN
vt 0 NaN
vt 0 NaN
vt 0 NaN
vt 0 NaN
vt 0 NaN
vt 0 NaN
vt 0 NaN
vt 0 NaN
vt 0 NaN
vt 0 NaN
vt 0 NaN
vt 0 NaN
vt 0 NaN
vt 0 NaN
vt 0 NaN
vt 0 NaN
vt 0 NaN
vt 0 NaN
vt 0 NaN
vt 0 NaN
vt 0 NaN
vt 0 NaN
vt 0 NaN
vt 0 NaN
vt 0 NaN
vt 0 NaN
vt 0 NaN
vt 0 NaN
vt 0 NaN
vt 0 NaN

usemtl color1

f 3/3/1 2/2/1 1/1/1
f 2/2/1 3/3/1 4/4/1
f 4/2/2 6/3/2 5/4/2
f 6/2/2 4/3/2 3/4/2
f 7/2/3 4/3/3 5/4/3
f 4/2/3 7/3/3 2/4/3
f 1/2/4 6/3/4 3/4/4
f 6/2/4 1/3/4 8/4/4
f 7/2/5 6/3/5 8/4/5
f 6/2/5 7/3/5 5/4/5
f 1/2/6 7/3/6 8/4/6
f 7/2/6 1/3/6 2/4/6
f 10/5/5 7/2/5 9/5/5
f 7/5/5 10/5/5 11/5/5
f 11/5/5 10/5/5 12/5/5
f 12/5/7 13/6/7 11/5/7
f 13/6/7 12/5/7 14/5/7
f 15/5/8 7/7/8 2/5/8
f 7/7/8 15/5/8 9/5/8
f 15/10/6 10/9/6 9/8/6
f 10/10/6 15/9/6 16/8/6
f 11/10/2 2/9/2 7/8/2
f 2/10/2 11/9/2 13/8/2
f 10/10/3 14/9/3 12/8/3
f 14/10/3 10/9/3 16/8/3
f 2/12/1 16/10/1 15/11/1
f 16/10/1 2/12/1 13/9/1
f 16/10/1 13/9/1 14/8/1
f 19/3/1 18/2/1 17/1/1
f 18/2/1 19/3/1 1/4/1
f 1/2/2 20/3/2 8/4/2
f 20/2/2 1/3/2 19/4/2
f 21/2/3 1/3/3 8/4/3
f 1/2/3 21/3/3 18/4/3
f 17/2/4 20/3/4 19/4/4
f 20/2/4 17/3/4 22/4/4
f 21/2/5 20/3/5 22/4/5
f 20/2/5 21/3/5 8/4/5
f 17/2/6 21/3/6 22/4/6
f 21/2/6 17/3/6 18/4/6
f 25/5/5 24/13/5 23/5/5
f 24/13/5 25/5/5 26/5/5
f 26/5/5 25/5/5 27/5/5
f 28/10/6 25/15/6 23/14/6
f 25/10/6 28/15/6 29/14/6
f 28/10/8 24/15/8 30/14/8
f 24/10/8 28/15/8 23/14/8
f 31/10/2 26/15/2 27/14/2
f 26/10/2 31/15/2 32/14/2
f 32/10/9 24/15/9 26/14/9
f 24/10/9 32/15/9 30/14/9
f 25/10/3 31/15/3 27/14/3
f 31/10/3 25/15/3 29/14/3
f 30/16/1 29/10/1 28/11/1
f 29/10/1 30/16/1 32/15/1
f 29/10/1 32/15/1 31/14/1
f 34/5/5 10/5/5 33/5/5
f 10/5/5 34/5/5 35/5/5
f 35/5/5 34/5/5 36/5/5
f 36/5/7 37/17/7 35/5/7
f 37/17/7 36/5/7 38/5/7
f 39/5/8 10/18/8 16/5/8
f 10/18/8 39/5/8 33/5/8
f 39/10/6 34/9/6 33/8/6
f 34/10/6 39/9/6 40/8/6
f 35/10/2 16/9/2 10/8/2
f 16/10/2 35/9/2 37/8/2
f 34/10/3 38/9/3 36/8/3
f 38/10/3 34/9/3 40/8/3
f 16/12/1 40/10/1 39/11/1
f 40/10/1 16/12/1 37/9/1
f 40/10/1 37/9/1 38/8/1
f 43/3/1 42/2/1 41/1/1
f 42/2/1 43/3/1 17/4/1
f 17/2/2 44/3/2 22/4/2
f 44/2/2 17/3/2 43/4/2
f 45/2/3 17/3/3 22/4/3
f 17/2/3 45/3/3 42/4/3
f 41/2/4 44/3/4 43/4/4
f 44/2/4 41/3/4 46/4/4
f 45/2/5 44/3/5 46/4/5
f 44/2/5 45/3/5 22/4/5
f 41/2/6 45/3/6 46/4/6
f 45/2/6 41/3/6 42/4/6
f 49/11/2 48/14/2 47/10/2
f 48/11/2 49/14/2 50/10/2
f 51/11/3 49/14/3 47/10/3
f 49/11/3 51/14/3 52/10/3
f 53/5/8 48/5/8 50/19/8
f 48/5/8 53/5/8 54/20/8
f 53/5/6 51/5/6 54/21/6
f 51/5/6 53/5/6 52/22/6
f 51/5/5 48/5/5 54/23/5
f 48/5/5 51/5/5 47/24/5
f 49/14/1 53/11/1 50/12/1
f 53/11/1 49/14/1 52/10/1
f 57/11/2 56/14/2 55/10/2
f 56/11/2 57/14/2 58/10/2
f 59/11/3 57/14/3 55/10/3
f 57/11/3 59/14/3 60/10/3
f 61/5/8 56/5/8 58/25/8
f 56/5/8 61/5/8 62/26/8
f 61/5/6 59/5/6 62/27/6
f 59/5/6 61/5/6 60/28/6
f 59/5/5 56/5/5 62/29/5
f 56/5/5 59/5/5 55/30/5
f 57/14/1 61/11/1 58/12/1
f 61/11/1 57/14/1 60/10/1
f 29/11/2 63/14/2 25/10/2
f 63/11/2 29/14/2 64/10/2
f 65/11/3 29/14/3 25/10/3
f 29/11/3 65/14/3 66/10/3
f 67/5/8 63/5/8 64/31/8
f 63/5/8 67/5/8 68/32/8
f 67/5/6 65/5/6 68/33/6
f 65/5/6 67/5/6 66/34/6
f 65/5/5 63/5/5 68/35/5
f 63/5/5 65/5/5 25/5/5
f 29/14/1 67/11/1 64/12/1
f 67/11/1 29/14/1 66/10/1

usemtl color6

f 71/5/5 70/36/5 69/5/5
f 72/5/10 70/37/10 71/5/10
f 70/37/10 72/5/10 73/5/10
f 74/5/8 70/38/8 73/5/8
f 70/38/8 74/5/8 69/5/8
f 74/40/6 71/1/6 69/39/6
f 71/40/6 74/1/6 72/39/6
f 72/40/1 74/1/1 73/39/1
f 77/5/6 76/41/6 75/5/6
f 76/41/6 77/5/6 78/5/6
f 75/1/5 79/42/5 71/2/5
f 79/1/5 75/42/5 76/2/5
f 77/1/8 71/42/8 72/2/8
f 71/1/8 77/42/8 75/2/8
f 76/1/3 80/42/3 79/2/3
f 80/1/3 76/42/3 78/2/3
f 80/1/11 71/42/11 79/2/11
f 71/1/11 80/42/11 72/2/11
f 80/42/1 77/1/1 72/43/1
f 77/1/1 80/42/1 78/2/1
f 83/11/2 82/14/2 81/10/2
f 82/11/2 83/14/2 84/10/2
f 85/11/3 83/14/3 81/10/3
f 83/11/3 85/14/3 86/10/3
f 87/5/8 82/5/8 84/44/8
f 82/5/8 87/5/8 88/45/8
f 87/5/6 85/5/6 88/46/6
f 85/5/6 87/5/6 86/47/6
f 85/5/5 82/5/5 88/48/5
f 82/5/5 85/5/5 81/49/5
f 83/14/1 87/11/1 84/12/1
f 87/11/1 83/14/1 86/10/1
f 91/11/2 90/14/2 89/10/2
f 90/11/2 91/14/2 92/10/2
f 93/11/3 91/14/3 89/10/3
f 91/11/3 93/14/3 94/10/3
f 95/5/8 90/5/8 92/50/8
f 90/5/8 95/5/8 96/51/8
f 95/5/6 93/5/6 96/52/6
f 93/5/6 95/5/6 94/53/6
f 93/5/5 90/5/5 96/54/5
f 90/5/5 93/5/5 89/55/5
f 91/14/1 95/11/1 92/12/1
f 95/11/1 91/14/1 94/10/1

usemtl color2

f 99/5/5 98/5/5 97/56/5
f 98/5/5 99/5/5 100/57/5
f 102/5/8 97/5/8 101/58/8
f 97/5/8 102/5/8 99/59/8
f 100/5/3 103/5/3 98/60/3
f 103/5/3 100/5/3 104/61/3
f 103/5/2 97/5/2 98/62/2
f 97/5/2 103/5/2 101/63/2
f 102/5/12 100/5/12 99/64/12
f 100/5/12 102/5/12 104/65/12
f 103/68/1 102/67/1 101/66/1
f 102/67/1 103/68/1 104/69/1
f 107/5/13 106/70/13 105/5/13
f 106/70/13 107/5/13 108/5/13
f 107/5/8 46/71/8 41/5/8
f 46/71/8 107/5/8 105/5/8
f 42/5/2 46/72/2 45/5/2
f 46/72/2 42/5/2 41/5/2
f 106/73/5 46/43/5 105/4/5
f 46/73/5 106/43/5 45/4/5
f 106/73/3 42/43/3 45/4/3
f 42/73/3 106/43/3 108/4/3
f 41/43/1 108/73/1 107/1/1
f 108/73/1 41/43/1 42/4/1
f 110/5/5 109/5/5 100/57/5
f 109/5/5 110/5/5 111/74/5
f 112/5/8 100/5/8 104/75/8
f 100/5/8 112/5/8 110/76/8
f 111/5/3 113/5/3 109/77/3
f 113/5/3 111/5/3 114/78/3
f 113/5/2 100/5/2 109/79/2
f 100/5/2 113/5/2 104/80/2
f 112/5/12 111/5/12 110/81/12
f 111/5/12 112/5/12 114/82/12
f 113/68/1 112/67/1 104/66/1
f 112/67/1 113/68/1 114/69/1
f 18/11/2 22/4/2 21/10/2
f 22/11/2 18/14/2 17/2/2
f 97/11/3 18/4/3 21/2/3
f 18/11/3 97/14/3 101/10/3
f 42/5/8 22/5/8 17/83/8
f 22/5/8 42/5/8 45/84/8
f 42/5/6 97/5/6 45/3/6
f 97/5/6 42/5/6 101/85/6
f 97/56/5 22/5/5 45/2/5
f 22/5/5 97/56/5 21/2/5
f 18/14/1 42/11/1 17/12/1
f 42/11/1 18/14/1 101/10/1

usemtl color10

f 117/5/6 116/86/6 115/5/6
f 116/86/6 117/5/6 118/5/6
f 115/1/5 120/42/5 119/2/5
f 120/1/5 115/42/5 116/2/5
f 117/1/8 119/42/8 121/2/8
f 119/1/8 117/42/8 115/2/8
f 116/1/3 122/42/3 120/2/3
f 122/1/3 116/42/3 118/2/3
f 122/1/11 119/42/11 120/2/11
f 119/1/11 122/42/11 121/2/11
f 122/42/1 117/1/1 121/43/1
f 117/1/1 122/42/1 118/2/1
f 125/11/2 124/14/2 123/10/2
f 124/11/2 125/14/2 126/10/2
f 47/11/3 125/14/3 123/10/3
f 125/11/3 47/14/3 49/10/3
f 50/19/8 124/5/8 126/87/8
f 124/5/8 50/19/8 48/5/8
f 50/5/6 47/5/6 48/88/6
f 47/5/6 50/5/6 49/89/6
f 47/24/5 124/5/5 48/5/5
f 124/5/5 47/24/5 123/90/5
f 125/14/1 50/11/1 126/12/1
f 50/11/1 125/14/1 49/10/1

usemtl color7

f 129/91/2 128/12/2 127/14/2
f 128/91/2 129/12/2 130/14/2
f 131/5/8 128/5/8 130/92/8
f 128/5/8 131/5/8 132/93/8
f 133/5/5 128/5/5 132/94/5
f 128/5/5 133/5/5 127/95/5
f 131/5/6 133/5/6 132/96/6
f 133/5/6 131/5/6 134/97/6
f 133/5/3 129/5/3 127/98/3
f 129/5/3 133/5/3 134/99/3
f 130/12/1 134/91/1 131/100/1
f 134/91/1 130/12/1 129/14/1

usemtl color4

f 130/91/2 135/12/2 128/14/2
f 135/91/2 130/12/2 136/14/2
f 137/5/8 135/5/8 136/101/8
f 135/5/8 137/5/8 138/102/8
f 132/94/5 135/5/5 138/103/5
f 135/5/5 132/94/5 128/5/5
f 137/5/6 132/96/6 138/104/6
f 132/96/6 137/5/6 131/5/6
f 132/5/3 130/5/3 128/105/3
f 130/5/3 132/5/3 131/106/3
f 136/12/1 131/91/1 137/100/1
f 131/91/1 136/12/1 130/14/1
f 52/11/2 54/14/2 51/10/2
f 54/11/2 52/14/2 53/10/2
f 55/11/3 52/14/3 51/10/3
f 52/11/3 55/14/3 57/10/3
f 58/25/8 54/20/8 53/5/8
f 54/20/8 58/25/8 56/5/8
f 58/5/6 55/5/6 56/107/6
f 55/5/6 58/5/6 57/108/6
f 55/30/5 54/23/5 56/5/5
f 54/23/5 55/30/5 51/5/5
f 52/14/1 58/11/1 53/12/1
f 58/11/1 52/14/1 57/10/1
f 140/11/2 68/14/2 139/10/2
f 68/11/2 140/14/2 67/10/2
f 141/11/3 140/14/3 139/10/3
f 140/11/3 141/14/3 142/10/3
f 143/5/8 68/32/8 67/5/8
f 68/32/8 143/5/8 144/109/8
f 143/5/6 141/5/6 144/110/6
f 141/5/6 143/5/6 142/111/6
f 141/5/5 68/35/5 144/112/5
f 68/35/5 141/5/5 139/113/5
f 140/14/1 143/11/1 67/12/1
f 143/11/1 140/14/1 142/10/1
f 147/11/2 146/14/2 145/10/2
f 146/11/2 147/14/2 148/10/2
f 81/11/3 147/14/3 145/10/3
f 147/11/3 81/14/3 83/10/3
f 84/44/8 146/5/8 148/114/8
f 146/5/8 84/44/8 82/5/8
f 84/5/6 81/5/6 82/115/6
f 81/5/6 84/5/6 83/116/6
f 81/49/5 146/5/5 82/5/5
f 146/5/5 81/49/5 145/117/5
f 147/14/1 84/11/1 148/12/1
f 84/11/1 147/14/1 83/10/1
f 86/11/2 88/14/2 85/10/2
f 88/11/2 86/14/2 87/10/2
f 89/11/3 86/14/3 85/10/3
f 86/11/3 89/14/3 91/10/3
f 92/50/8 88/45/8 87/5/8
f 88/45/8 92/50/8 90/5/8
f 92/5/6 89/5/6 90/118/6
f 89/5/6 92/5/6 91/119/6
f 89/55/5 88/48/5 90/5/5
f 88/48/5 89/55/5 85/5/5
f 86/14/1 92/11/1 87/12/1
f 92/11/1 86/14/1 91/10/1
f 94/11/2 96/14/2 93/10/2
f 96/11/2 94/14/2 95/10/2
f 149/11/3 94/14/3 93/10/3
f 94/11/3 149/14/3 150/10/3
f 151/5/8 96/51/8 95/5/8
f 96/51/8 151/5/8 152/120/8
f 151/5/6 149/5/6 152/121/6
f 149/5/6 151/5/6 150/122/6
f 149/5/5 96/54/5 152/123/5
f 96/54/5 149/5/5 93/5/5
f 94/14/1 151/11/1 95/12/1
f 151/11/1 94/14/1 150/10/1
f 154/11/2 111/14/2 153/10/2
f 111/11/2 154/14/2 114/10/2
f 155/11/3 154/14/3 153/10/3
f 154/11/3 155/14/3 156/10/3
f 157/5/8 111/5/8 114/124/8
f 111/5/8 157/5/8 158/125/8
f 157/5/6 155/5/6 158/126/6
f 155/5/6 157/5/6 156/127/6
f 155/5/5 111/74/5 158/128/5
f 111/74/5 155/5/5 153/129/5
f 154/14/1 157/11/1 114/12/1
f 157/11/1 154/14/1 156/10/1

usemtl color9

f 161/91/2 160/12/2 159/14/2
f 160/91/2 161/12/2 162/14/2
f 163/5/8 160/5/8 162/130/8
f 160/5/8 163/5/8 164/131/8
f 165/5/5 160/5/5 164/132/5
f 160/5/5 165/5/5 159/133/5
f 163/5/6 165/5/6 164/134/6
f 165/5/6 163/5/6 166/135/6
f 165/5/3 161/5/3 159/136/3
f 161/5/3 165/5/3 166/137/3
f 162/12/1 166/91/1 163/100/1
f 166/91/1 162/12/1 161/14/1
f 60/91/2 62/12/2 59/14/2
f 62/91/2 60/12/2 61/14/2
f 167/5/8 62/26/8 61/5/8
f 62/26/8 167/5/8 168/138/8
f 169/5/5 62/29/5 168/139/5
f 62/29/5 169/5/5 59/5/5
f 167/5/6 169/5/6 168/140/6
f 169/5/6 167/5/6 170/141/6
f 169/5/3 60/5/3 59/11/3
f 60/5/3 169/5/3 170/142/3
f 61/12/1 170/91/1 167/100/1
f 170/91/1 61/12/1 60/14/1
f 173/91/2 172/12/2 171/14/2
f 172/91/2 173/12/2 174/14/2
f 175/5/8 172/5/8 174/143/8
f 172/5/8 175/5/8 176/144/8
f 177/5/5 172/5/5 176/145/5
f 172/5/5 177/5/5 171/146/5
f 175/5/6 177/5/6 176/147/6
f 177/5/6 175/5/6 178/148/6
f 177/5/3 173/5/3 171/149/3
f 173/5/3 177/5/3 178/150/3
f 174/12/1 178/91/1 175/100/1
f 178/91/1 174/12/1 173/14/1

usemtl color5

f 181/11/2 180/14/2 179/10/2
f 180/11/2 181/14/2 182/10/2
f 183/11/3 181/14/3 179/10/3
f 181/11/3 183/14/3 184/10/3
f 185/5/8 180/5/8 182/151/8
f 180/5/8 185/5/8 186/152/8
f 185/5/6 183/5/6 186/153/6
f 183/5/6 185/5/6 184/154/6
f 183/5/5 180/5/5 186/155/5
f 180/5/5 183/5/5 179/156/5
f 181/14/1 185/11/1 182/12/1
f 185/11/1 181/14/1 184/10/1
f 189/11/2 188/14/2 187/10/2
f 188/11/2 189/14/2 190/10/2
f 191/11/3 189/14/3 187/10/3
f 189/11/3 191/14/3 192/10/3
f 193/5/8 188/5/8 190/157/8
f 188/5/8 193/5/8 194/158/8
f 193/5/6 191/5/6 194/159/6
f 191/5/6 193/5/6 192/160/6
f 191/5/5 188/5/5 194/161/5
f 188/5/5 191/5/5 187/162/5
f 189/14/1 193/11/1 190/12/1
f 193/11/1 189/14/1 192/10/1
f 197/11/2 196/14/2 195/10/2
f 196/11/2 197/14/2 198/10/2
f 199/11/3 197/14/3 195/10/3
f 197/11/3 199/14/3 200/10/3
f 201/5/8 196/5/8 198/163/8
f 196/5/8 201/5/8 202/164/8
f 201/5/6 199/5/6 202/165/6
f 199/5/6 201/5/6 200/166/6
f 199/5/5 196/5/5 202/167/5
f 196/5/5 199/5/5 195/168/5
f 197/14/1 201/11/1 198/12/1
f 201/11/1 197/14/1 200/10/1

usemtl color8

f 121/11/2 47/14/2 119/10/2
f 47/11/2 121/14/2 49/10/2
f 115/11/3 121/14/3 119/10/3
f 121/11/3 115/14/3 117/10/3
f 52/5/8 47/5/8 49/169/8
f 47/5/8 52/5/8 51/170/8
f 52/22/6 115/5/6 51/5/6
f 115/5/6 52/22/6 117/5/6
f 115/5/5 47/24/5 51/5/5
f 47/24/5 115/5/5 119/2/5
f 121/14/1 52/11/1 49/12/1
f 52/11/1 121/14/1 117/10/1
f 126/11/2 203/14/2 124/10/2
f 203/11/2 126/14/2 204/10/2
f 48/11/3 126/14/3 124/10/3
f 126/11/3 48/14/3 50/10/3
f 205/5/8 203/5/8 204/171/8
f 203/5/8 205/5/8 206/172/8
f 205/5/6 48/88/6 206/173/6
f 48/88/6 205/5/6 50/5/6
f 48/5/5 203/5/5 206/174/5
f 203/5/5 48/5/5 124/5/5
f 126/14/1 205/11/1 204/12/1
f 205/11/1 126/14/1 50/10/1

usemtl color3

f 209/11/2 208/14/2 207/10/2
f 208/11/2 209/14/2 210/10/2
f 211/11/3 209/14/3 207/10/3
f 209/11/3 211/14/3 212/10/3
f 200/5/8 208/5/8 210/175/8
f 208/5/8 200/5/8 199/176/8
f 200/166/6 211/5/6 199/5/6
f 211/5/6 200/166/6 212/177/6
f 211/5/5 208/5/5 199/5/5
f 208/5/5 211/5/5 207/178/5
f 209/14/1 200/11/1 210/12/1
f 200/11/1 209/14/1 212/10/1
f 64/11/2 213/14/2 63/10/2
f 213/11/2 64/14/2 214/10/2
f 68/11/3 64/14/3 63/10/3
f 64/11/3 68/14/3 67/10/3
f 215/5/8 213/5/8 214/179/8
f 213/5/8 215/5/8 216/180/8
f 215/5/6 68/33/6 216/181/6
f 68/33/6 215/5/6 67/5/6
f 68/35/5 213/5/5 216/182/5
f 213/5/5 68/35/5 63/5/5
f 64/14/1 215/11/1 214/12/1
f 215/11/1 64/14/1 67/10/1
f 67/11/2 217/14/2 68/10/2
f 217/11/2 67/14/2 218/10/2
f 144/11/3 67/14/3 68/10/3
f 67/11/3 144/14/3 143/10/3
f 219/5/8 217/5/8 218/183/8
f 217/5/8 219/5/8 220/184/8
f 219/5/6 144/110/6 220/185/6
f 144/110/6 219/5/6 143/5/6
f 144/112/5 217/5/5 220/186/5
f 217/5/5 144/112/5 68/35/5
f 67/14/1 219/11/1 218/12/1
f 219/11/1 67/14/1 143/10/1
f 223/11/2 222/14/2 221/10/2
f 222/11/2 223/14/2 224/10/2
f 195/11/3 223/14/3 221/10/3
f 223/11/3 195/14/3 197/10/3
f 198/163/8 222/5/8 224/187/8
f 222/5/8 198/163/8 196/5/8
f 198/5/6 195/5/6 196/188/6
f 195/5/6 198/5/6 197/189/6
f 195/168/5 222/5/5 196/5/5
f 222/5/5 195/168/5 221/190/5
f 223/14/1 198/11/1 224/12/1
f 198/11/1 223/14/1 197/10/1
f 227/11/2 226/14/2 225/10/2
f 226/11/2 227/14/2 228/10/2
f 229/11/3 227/14/3 225/10/3
f 227/11/3 229/14/3 230/10/3
f 231/5/8 226/5/8 228/191/8
f 226/5/8 231/5/8 232/192/8
f 231/5/6 229/5/6 232/193/6
f 229/5/6 231/5/6 230/194/6
f 229/5/5 226/5/5 232/195/5
f 226/5/5 229/5/5 225/196/5
f 227/14/1 231/11/1 228/12/1
f 231/11/1 227/14/1 230/10/1
f 235/11/2 234/14/2 233/10/2
f 234/11/2 235/14/2 236/10/2
f 237/11/3 235/14/3 233/10/3
f 235/11/3 237/14/3 238/10/3
f 228/191/8 234/5/8 236/197/8
f 234/5/8 228/191/8 226/5/8
f 228/5/6 237/5/6 226/198/6
f 237/5/6 228/5/6 238/199/6
f 237/5/5 234/5/5 226/5/5
f 234/5/5 237/5/5 233/200/5
f 235/14/1 228/11/1 236/12/1
f 228/11/1 235/14/1 238/10/1
f 67/11/2 217/14/2 68/10/2
f 217/11/2 67/14/2 218/10/2
f 144/11/3 67/14/3 68/10/3
f 67/11/3 144/14/3 143/10/3
f 219/5/8 217/5/8 218/183/8
f 217/5/8 219/5/8 220/184/8
f 219/5/6 144/110/6 220/185/6
f 144/110/6 219/5/6 143/5/6
f 144/112/5 217/5/5 220/186/5
f 217/5/5 144/112/5 68/35/5
f 67/14/1 219/11/1 218/12/1
f 219/11/1 67/14/1 143/10/1

